{
  "title": "Paddington.2014.1080p.WEB-DL.DD5.1.H264-RARBG",
  "uid": 11770070,
  "size": 3448963647,
  "categoryP": "video",
  "categoryS": "hd___movies",
  "magnet": "?xt=urn:btih:3a9f7625caf2d986864f5c8d2ac0747b1acae987&amp;dn=Paddington.2014.1080p.WEB-DL.DD5.1.H264-RARBG&amp;tr=udp%3A%2F%2Ftracker.openbittorrent.com%3A80&amp;tr=udp%3A%2F%2Fopen.demonii.com%3A1337&amp;tr=udp%3A%2F%2Ftracker.coppersurfer.tk%3A6969&amp;tr=udp%3A%2F%2Fexodus.desync.com%3A6969",
  "seeders": 66,
  "leechers": 2,
  "uploader": "vickey1992",
  "files": 4,
  "time": 1427034360,
  "description": "Info:\n\n[mediainfo]\n\nVideo\nID : 1\nFormat : AVC\nFormat/Info : Advanced Video Codec\nFormat profile : &lt;a class=&quot;__cf_email__&quot; href=&quot;/cdn-cgi/l/email-protection&quot; data-cfemail=&quot;9dd5f4faf5ddd1a9b3ad&quot;&gt;[email&amp;#160;protected]&lt;/a&gt;&lt;script cf-hash='f9e31' type=&quot;text/javascript&quot;&gt;\n/* &lt;![CDATA[ */!function(){try{var t=&quot;currentScript&quot;in document?document.currentScript:function(){for(var t=document.getElementsByTagName(&quot;script&quot;),e=t.length;e--;)if(t[e].getAttribute(&quot;cf-hash&quot;))return t[e]}();if(t&amp;&amp;t.previousSibling){var e,r,n,i,c=t.previousSibling,a=c.getAttribute(&quot;data-cfemail&quot;);if(a){for(e=&quot;&quot;,r=parseInt(a.substr(0,2),16),n=2;a.length-n;n+=2)i=parseInt(a.substr(n,2),16)^r,e+=String.fromCharCode(i);e=document.createTextNode(e),c.parentNode.replaceChild(e,c)}}}catch(u){}}();/* ]]&gt; */&lt;/script&gt;\nFormat settings, CABAC : Yes\nFormat settings, ReFrames : 5 frames\nCodec ID : V_MPEG4/ISO/AVC\nDuration : 1h 35mn\nBit rate : 4 349 Kbps\nWidth : 1 916 pixels\nHeight : 800 pixels\nDisplay aspect ratio : 2.40:1\nFrame rate mode : Constant\nFrame rate : 23.976 fps\nColor space : YUV\nChroma subsampling : 4:2:0\nBit depth : 8 bits\nScan type : Progressive\nBits/(Pixel*Frame) : 0.118\nStream size : 2.89 GiB (90%)\nTitle : Paddington.2014.1080p.WEB-DL.DD5.1.H264-RARBG\nLanguage : English\nDefault : Yes\nForced : No\nColor primaries : BT.709\nTransfer characteristics : BT.709\nMatrix coefficients : BT.709\nColor range : Limited\n\nAudio\nID : 2\nFormat : AC-3\nFormat/Info : Audio Coding 3\nMode extension : CM (complete main)\nFormat settings, Endianness : Big\nCodec ID : A_AC3\nDuration : 1h 35mn\nBit rate mode : Constant\nBit rate : 384 Kbps\nChannel(s) : 6 channels\nChannel positions : Front: L C R, Side: L R, LFE\nSampling rate : 48.0 KHz\nBit depth : 16 bits\nCompression mode : Lossy\nStream size : 261 MiB (8%)\nTitle : Paddington.2014.1080p.WEB-DL.DD5.1.H264-RARBG\nLanguage : English\nDefault : Yes\nForced : No\n\nMenu\n00:00:00.000 : en:1\n00:06:32.000 : en:2\n00:11:48.000 : en:3\n00:17:33.000 : en:4\n00:24:46.000 : en:5\n00:29:05.000 : en:6\n00:34:28.000 : en:7\n00:41:28.000 : en:8\n00:45:39.000 : en:9\n00:53:45.000 : en:10\n00:58:48.000 : en:11\n01:03:54.000 : en:12\n01:10:34.000 : en:13\n01:16:02.000 : en:14\n01:21:24.000 : en:15\n01:27:40.000 : en:16",
  "parsed": {
    "xt": "urn:btih:3a9f7625caf2d986864f5c8d2ac0747b1acae987",
    "dn": "Paddington.2014.1080p.WEB-DL.DD5.1.H264-RARBG",
    "tr": [
      "udp://exodus.desync.com:6969",
      "udp://open.demonii.com:1337",
      "udp://tracker.coppersurfer.tk:6969",
      "udp://tracker.openbittorrent.com:80"
    ],
    "infoHash": "3a9f7625caf2d986864f5c8d2ac0747b1acae987",
    "infoHashBuffer": {
      "type": "Buffer",
      "data": [
        58,
        159,
        118,
        37,
        202,
        242,
        217,
        134,
        134,
        79,
        92,
        141,
        42,
        192,
        116,
        123,
        26,
        202,
        233,
        135
      ]
    },
    "name": "Paddington.2014.1080p.WEB-DL.DD5.1.H264-RARBG",
    "announce": [
      "udp://exodus.desync.com:6969",
      "udp://open.demonii.com:1337",
      "udp://tracker.coppersurfer.tk:6969",
      "udp://tracker.openbittorrent.com:80"
    ],
    "urlList": []
  },
  "previous": 68,
  "peers": 9,
  "last_updated": "2016-12-24T22:32:31.111Z"
}